<svg id="Layer_1" data-name="Layer 1" xmlns="http://www.w3.org/2000/svg" width="250" height="250" viewBox="0 0 250 250"><defs><style>.cls-1{fill:#07529b;}</style></defs><title>alkem-logo</title><path class="cls-1" d="M134.77,91.22a144.76,144.76,0,0,1-14.12,3.55q-9.65,2.08-12.62,4c-3,2.17-4.53,4.87-4.53,8.17a11.26,11.26,0,0,0,3.63,8.42,12.62,12.62,0,0,0,9.23,3.55,20.28,20.28,0,0,0,12-4.11,14.32,14.32,0,0,0,5.51-7.69c.62-2,.91-5.75.91-11.3Zm16.29,42.11H139.64c-.59-1.55-1.35-3.83-2.23-6.85-.37-1.38-.63-2.28-.8-2.74a42.33,42.33,0,0,1-12.73,8.69,36.44,36.44,0,0,1-14.45,2.87,37.42,37.42,0,0,1-12-1.79L124,147.78Zm-40.67-89a73.91,73.91,0,0,1,10.26-.65c10.37,0,18.06,1.23,23.13,3.69s8.62,5.55,10.69,9.33,3.1,10.68,3.1,20.77l-.25,27.08c0,7.69.36,13.38,1.12,17a43.35,43.35,0,0,0,2,6.76l67-35.75L124.53,36.82Zm-6.65,28.1L82.68,68.6a38.29,38.29,0,0,1,6-12.8L20.41,92,89.6,129.29c-.51-.43-1-.85-1.5-1.31a24.43,24.43,0,0,1-7.8-18.61,24.94,24.94,0,0,1,3.54-13.24,23.15,23.15,0,0,1,10-8.91c4.26-2,10.43-3.85,18.46-5.41q16.25-3,22.52-5.69V73.81c0-4.48-1.11-7.63-3.29-9.55s-6.35-2.84-12.47-2.84c-4.14,0-7.35.81-9.66,2.44s-4.17,4.46-5.61,8.55M189.12,222V170.7h17.31l10.74,37,10.67-37H245.5V222H235.35V178.63L221.94,222h-9.6L199,178.63V222Zm-42.69,0V170.7h34v8.48H157.55v12.1H179v8.34H157.55V213.4h23.66V222Zm-46.77,0V170.7h10.9v22.12L127.3,170.7h12.31l-18,22.93L141.36,222H128.65L110.56,195.4V222Zm-40.5,0V170.7h10.9v42.58H93.19V222ZM21.6,202.52H36.4l-7-21.72ZM4.5,222,23.1,170.7H36L53.89,222H42.74l-3.66-11H18.83l-4,11Zm1-130.11L124.29,28,241.74,92.53,123.61,156.35Z"/></svg>